<svg width="20" height="20" viewBox="0 0 20 20" fill="none" xmlns="http://www.w3.org/2000/svg">
<g clip-path="url(#clip0_363_3)">
<g filter="url(#filter0_d_363_3)">
<path d="M6.82903 5.99553V3.99901C6.82903 3.63145 7.12699 3.3335 7.49454 3.3335H15.4806C15.8482 3.3335 16.1462 3.63145 16.1462 3.99901V13.3161C16.1462 13.6837 15.8482 13.9816 15.4806 13.9816H13.4841V15.9782C13.4841 16.3455 13.1846 16.6437 12.814 16.6437H4.83716C4.6599 16.6447 4.48953 16.5751 4.36376 16.4502C4.23798 16.3253 4.16717 16.1554 4.16699 15.9782L4.16899 6.66104C4.16899 6.29368 4.46847 5.99553 4.83849 5.99553H6.82903ZM5.49934 7.32655L5.49801 15.3127H12.1531V7.32655H5.49934ZM8.16005 5.99553H13.4841V12.6506H14.8151V4.66451H8.16005V5.99553ZM6.82903 9.32308H10.8221V10.6541H6.82903V9.32308ZM6.82903 11.9851H10.8221V13.3161H6.82903V11.9851Z" fill="black"/>
</g>
</g>
<defs>
<filter id="filter0_d_363_3" x="-13.833" y="-6.6665" width="47.9795" height="49.3101" filterUnits="userSpaceOnUse" color-interpolation-filters="sRGB">
<feFlood flood-opacity="0" result="BackgroundImageFix"/>
<feColorMatrix in="SourceAlpha" type="matrix" values="0 0 0 0 0 0 0 0 0 0 0 0 0 0 0 0 0 0 127 0" result="hardAlpha"/>
<feOffset dy="8"/>
<feGaussianBlur stdDeviation="9"/>
<feColorMatrix type="matrix" values="0 0 0 0 0 0 0 0 0 0 0 0 0 0 0 0 0 0 0.05 0"/>
<feBlend mode="normal" in2="BackgroundImageFix" result="effect1_dropShadow_363_3"/>
<feBlend mode="normal" in="SourceGraphic" in2="effect1_dropShadow_363_3" result="shape"/>
</filter>
<clipPath id="clip0_363_3">
<rect width="20" height="20" fill="white"/>
</clipPath>
</defs>
</svg>
