<svg width="157" height="289" viewBox="0 0 157 289" fill="none" xmlns="http://www.w3.org/2000/svg">
<circle cx="1" cy="1" r="1" fill="#1E2022"/>
<circle cx="23" cy="1" r="1" fill="#1E2022"/>
<circle cx="45" cy="1" r="1" fill="#1E2022"/>
<circle cx="68" cy="1" r="1" fill="#1E2022"/>
<circle cx="89" cy="1" r="1" fill="#1E2022"/>
<circle cx="112" cy="1" r="1" fill="#1E2022"/>
<circle cx="1" cy="23" r="1" fill="#1E2022"/>
<circle cx="23" cy="23" r="1" fill="#1E2022"/>
<circle cx="45" cy="23" r="1" fill="#1E2022"/>
<circle cx="68" cy="23" r="1" fill="#1E2022"/>
<circle cx="89" cy="23" r="1" fill="#1E2022"/>
<circle cx="112" cy="23" r="1" fill="#1E2022"/>
<circle cx="1" cy="45" r="1" fill="#1E2022"/>
<circle cx="23" cy="45" r="1" fill="#1E2022"/>
<circle cx="45" cy="45" r="1" fill="#1E2022"/>
<circle cx="68" cy="45" r="1" fill="#1E2022"/>
<circle cx="89" cy="45" r="1" fill="#1E2022"/>
<circle cx="112" cy="45" r="1" fill="#1E2022"/>
<circle cx="1" cy="67" r="1" fill="#1E2022"/>
<circle cx="23" cy="67" r="1" fill="#1E2022"/>
<circle cx="45" cy="67" r="1" fill="#1E2022"/>
<circle cx="68" cy="67" r="1" fill="#1E2022"/>
<circle cx="89" cy="67" r="1" fill="#1E2022"/>
<circle cx="112" cy="67" r="1" fill="#1E2022"/>
<circle cx="1" cy="89" r="1" fill="#1E2022"/>
<circle cx="23" cy="89" r="1" fill="#1E2022"/>
<circle cx="45" cy="89" r="1" fill="#1E2022"/>
<circle cx="68" cy="89" r="1" fill="#1E2022"/>
<circle cx="89" cy="89" r="1" fill="#1E2022"/>
<circle cx="112" cy="89" r="1" fill="#1E2022"/>
<circle cx="1" cy="112" r="1" fill="#1E2022"/>
<circle cx="23" cy="112" r="1" fill="#1E2022"/>
<circle cx="45" cy="112" r="1" fill="#1E2022"/>
<circle cx="68" cy="112" r="1" fill="#1E2022"/>
<circle cx="89" cy="112" r="1" fill="#1E2022"/>
<circle cx="112" cy="112" r="1" fill="#1E2022"/>
<circle cx="1" cy="133" r="1" fill="#1E2022"/>
<circle cx="23" cy="133" r="1" fill="#1E2022"/>
<circle cx="45" cy="133" r="1" fill="#1E2022"/>
<circle cx="68" cy="133" r="1" fill="#1E2022"/>
<circle cx="89" cy="133" r="1" fill="#1E2022"/>
<circle cx="112" cy="133" r="1" fill="#1E2022"/>
<circle cx="1" cy="156" r="1" fill="#1E2022"/>
<circle cx="23" cy="156" r="1" fill="#1E2022"/>
<circle cx="45" cy="156" r="1" fill="#1E2022"/>
<circle cx="68" cy="156" r="1" fill="#1E2022"/>
<circle cx="89" cy="156" r="1" fill="#1E2022"/>
<circle cx="112" cy="156" r="1" fill="#1E2022"/>
<circle cx="1" cy="177" r="1" fill="#1E2022"/>
<circle cx="23" cy="177" r="1" fill="#1E2022"/>
<circle cx="45" cy="177" r="1" fill="#1E2022"/>
<circle cx="68" cy="177" r="1" fill="#1E2022"/>
<circle cx="89" cy="177" r="1" fill="#1E2022"/>
<circle cx="112" cy="177" r="1" fill="#1E2022"/>
<circle cx="1" cy="200" r="1" fill="#1E2022"/>
<circle cx="23" cy="200" r="1" fill="#1E2022"/>
<circle cx="45" cy="200" r="1" fill="#1E2022"/>
<circle cx="68" cy="200" r="1" fill="#1E2022"/>
<circle cx="89" cy="200" r="1" fill="#1E2022"/>
<circle cx="112" cy="200" r="1" fill="#1E2022"/>
<circle cx="1" cy="222" r="1" fill="#1E2022"/>
<circle cx="23" cy="222" r="1" fill="#1E2022"/>
<circle cx="45" cy="222" r="1" fill="#1E2022"/>
<circle cx="68" cy="222" r="1" fill="#1E2022"/>
<circle cx="89" cy="222" r="1" fill="#1E2022"/>
<circle cx="112" cy="222" r="1" fill="#1E2022"/>
<circle cx="134" cy="1" r="1" fill="#1E2022"/>
<circle cx="156" cy="1" r="1" fill="#1E2022"/>
<circle cx="134" cy="23" r="1" fill="#1E2022"/>
<circle cx="156" cy="23" r="1" fill="#1E2022"/>
<circle cx="134" cy="45" r="1" fill="#1E2022"/>
<circle cx="156" cy="45" r="1" fill="#1E2022"/>
<circle cx="134" cy="67" r="1" fill="#1E2022"/>
<circle cx="156" cy="67" r="1" fill="#1E2022"/>
<circle cx="134" cy="89" r="1" fill="#1E2022"/>
<circle cx="156" cy="89" r="1" fill="#1E2022"/>
<circle cx="134" cy="112" r="1" fill="#1E2022"/>
<circle cx="156" cy="112" r="1" fill="#1E2022"/>
<circle cx="134" cy="133" r="1" fill="#1E2022"/>
<circle cx="156" cy="133" r="1" fill="#1E2022"/>
<circle cx="134" cy="156" r="1" fill="#1E2022"/>
<circle cx="156" cy="156" r="1" fill="#1E2022"/>
<circle cx="134" cy="177" r="1" fill="#1E2022"/>
<circle cx="156" cy="177" r="1" fill="#1E2022"/>
<circle cx="134" cy="200" r="1" fill="#1E2022"/>
<circle cx="156" cy="200" r="1" fill="#1E2022"/>
<circle cx="134" cy="222" r="1" fill="#1E2022"/>
<circle cx="156" cy="222" r="1" fill="#1E2022"/>
<circle cx="1" cy="244" r="1" fill="#1E2022"/>
<circle cx="23" cy="244" r="1" fill="#1E2022"/>
<circle cx="45" cy="244" r="1" fill="#1E2022"/>
<circle cx="68" cy="244" r="1" fill="#1E2022"/>
<circle cx="89" cy="244" r="1" fill="#1E2022"/>
<circle cx="112" cy="244" r="1" fill="#1E2022"/>
<circle cx="1" cy="266" r="1" fill="#1E2022"/>
<circle cx="23" cy="266" r="1" fill="#1E2022"/>
<circle cx="45" cy="266" r="1" fill="#1E2022"/>
<circle cx="68" cy="266" r="1" fill="#1E2022"/>
<circle cx="89" cy="266" r="1" fill="#1E2022"/>
<circle cx="112" cy="266" r="1" fill="#1E2022"/>
<circle cx="1" cy="288" r="1" fill="#1E2022"/>
<circle cx="23" cy="288" r="1" fill="#1E2022"/>
<circle cx="45" cy="288" r="1" fill="#1E2022"/>
<circle cx="68" cy="288" r="1" fill="#1E2022"/>
<circle cx="89" cy="288" r="1" fill="#1E2022"/>
<circle cx="112" cy="288" r="1" fill="#1E2022"/>
<circle cx="134" cy="244" r="1" fill="#1E2022"/>
<circle cx="156" cy="244" r="1" fill="#1E2022"/>
<circle cx="134" cy="266" r="1" fill="#1E2022"/>
<circle cx="156" cy="266" r="1" fill="#1E2022"/>
<circle cx="134" cy="288" r="1" fill="#1E2022"/>
<circle cx="156" cy="288" r="1" fill="#1E2022"/>
</svg>
