<svg width="24" height="24" viewBox="0 0 24 24" fill="none" xmlns="http://www.w3.org/2000/svg">
<path d="M2.30464 4.79286L3.62644 5.84286C5.42868 3.50238 8.23164 2 11.3791 2C16.814 2 21.2129 6.46429 21.22 11.9881C21.227 17.5167 16.8187 22 11.3791 22C7.13014 22 3.50926 19.2619 2.13121 15.4262C2.09606 15.3262 2.14762 15.2143 2.24605 15.181L3.57488 14.7167C3.62121 14.7005 3.67192 14.7035 3.71615 14.7248C3.76039 14.7462 3.79464 14.7843 3.81159 14.831C3.85377 14.95 3.90064 15.069 3.94986 15.1857C4.3553 16.1619 4.93652 17.0381 5.6771 17.7905C6.41171 18.5382 7.28148 19.1348 8.23868 19.5476C9.23002 19.9738 10.287 20.1905 11.3744 20.1905C12.4642 20.1905 13.5188 19.9738 14.5102 19.5476C15.4683 19.1366 16.3384 18.5397 17.0718 17.7905C17.8084 17.0443 18.395 16.1596 18.799 15.1857C19.2185 14.1762 19.4318 13.1048 19.4318 11.9976C19.4318 10.8905 19.2185 9.81905 18.799 8.80952C18.3936 7.83333 17.8123 6.95714 17.0718 6.20476C16.3312 5.45238 15.4687 4.8619 14.5102 4.44762C13.5188 4.02143 12.4619 3.80476 11.3744 3.80476C10.2847 3.80476 9.23002 4.02143 8.23868 4.44762C7.28055 4.85868 6.41047 5.45552 5.6771 6.20476C5.44509 6.44048 5.22713 6.69048 5.02558 6.95238L6.43644 8.07143C6.46435 8.09337 6.4856 8.12286 6.49775 8.15653C6.5099 8.19019 6.51245 8.22666 6.5051 8.26173C6.49776 8.2968 6.48082 8.32905 6.45623 8.35477C6.43165 8.3805 6.40042 8.39865 6.36613 8.40714L2.25074 9.43095C2.13356 9.45952 2.01872 9.36905 2.01872 9.24762L1.99997 4.94048C2.00232 4.78333 2.18277 4.69524 2.30464 4.79286V4.79286Z" fill="white"/>
<path d="M9.30966 8.72727V16H8.42898V9.65057H8.38636L6.6108 10.8295V9.93466L8.42898 8.72727H9.30966ZM13.7734 16.0994C13.2384 16.0994 12.7827 15.9538 12.4062 15.6626C12.0298 15.3691 11.7422 14.9441 11.5433 14.3878C11.3445 13.8291 11.245 13.1544 11.245 12.3636C11.245 11.5777 11.3445 10.9065 11.5433 10.3501C11.7446 9.79143 12.0334 9.36529 12.4098 9.07173C12.7886 8.7758 13.2431 8.62784 13.7734 8.62784C14.3037 8.62784 14.7571 8.7758 15.1335 9.07173C15.5123 9.36529 15.8011 9.79143 16 10.3501C16.2012 10.9065 16.3018 11.5777 16.3018 12.3636C16.3018 13.1544 16.2024 13.8291 16.0036 14.3878C15.8047 14.9441 15.517 15.3691 15.1406 15.6626C14.7642 15.9538 14.3085 16.0994 13.7734 16.0994ZM13.7734 15.3182C14.3037 15.3182 14.7157 15.0625 15.0092 14.5511C15.3028 14.0398 15.4496 13.3106 15.4496 12.3636C15.4496 11.7339 15.3821 11.1977 15.2472 10.755C15.1146 10.3123 14.9228 9.97491 14.6719 9.7429C14.4233 9.51089 14.1238 9.39489 13.7734 9.39489C13.2479 9.39489 12.8371 9.65412 12.5412 10.1726C12.2453 10.6887 12.0973 11.419 12.0973 12.3636C12.0973 12.9934 12.1636 13.5284 12.2962 13.9688C12.4287 14.4091 12.6193 14.7441 12.8679 14.9737C13.1188 15.2034 13.4207 15.3182 13.7734 15.3182Z" fill="white"/>
</svg>
