<?xml version="1.0" encoding="UTF-8"?>
<svg width="19px" height="18px" viewBox="0 0 19 18" version="1.1" xmlns="http://www.w3.org/2000/svg" xmlns:xlink="http://www.w3.org/1999/xlink">
    <title>Elevator</title>
    <g id="Page-1" stroke="none" stroke-width="1" fill="none" fill-rule="evenodd">
        <g id="Single-1" transform="translate(-674.000000, -1529.000000)" fill-rule="nonzero">
            <g id="Group-74" transform="translate(416.000000, 1440.000000)">
                <g id="Group-26" transform="translate(165.000000, 72.000000)">
                    <g id="Elevator" transform="translate(93.000000, 17.000000)">
                        <polygon id="Path" fill="#40AAC8" points="16.3131309 9.78787902 17.6565655 7.10100992 19 9.78787902"></polygon>
                        <polygon id="Path" fill="#40AAC8" points="16.3131309 12.3636361 17.6565655 15.0505052 19 12.3636361"></polygon>
                        <path d="M0,0 L0,17.944444 L14.6818178,17.944444 L14.6818178,0 L0,0 Z M6.52525236,16.3131309 L1.63131309,16.3131309 L1.63131309,4.89393927 L6.52525236,4.89393927 L6.52525236,16.3131309 Z M13.0505047,16.3131309 L8.15656545,16.3131309 L8.15656545,4.89393927 L13.0505047,4.89393927 L13.0505047,16.3131309 Z M13.0505047,3.26262618 L1.63131309,3.26262618 L1.63131309,1.63131309 L13.0505047,1.63131309 L13.0505047,3.26262618 Z" id="Shape" fill="#292932"></path>
                        <rect id="Rectangle" fill="#9DD4E3" x="4.89393927" y="1.63131309" width="4.89393927" height="1.63131309"></rect>
                    </g>
                </g>
            </g>
        </g>
    </g>
</svg>