<svg width="24" height="24" viewBox="0 0 24 24" fill="none" xmlns="http://www.w3.org/2000/svg">
<path d="M20.9164 4.90547L19.5945 5.93906C17.7922 3.63516 14.9891 2.15625 11.8414 2.15625C6.40626 2.15625 2.00704 6.55078 2.00001 11.9883C1.99298 17.4305 6.40157 21.8438 11.8414 21.8438C16.0906 21.8438 19.7117 19.1484 21.0899 15.3727C21.125 15.2742 21.0734 15.1641 20.975 15.1312L19.6461 14.6742C19.5998 14.6583 19.5491 14.6612 19.5048 14.6822C19.4606 14.7033 19.4263 14.7408 19.4094 14.7867C19.3672 14.9039 19.3203 15.0211 19.2711 15.1359C18.8656 16.0969 18.2844 16.9594 17.5438 17.7C16.8091 18.436 15.9393 19.0233 14.982 19.4297C13.9906 19.8492 12.9336 20.0625 11.8461 20.0625C10.7563 20.0625 9.70157 19.8492 8.71016 19.4297C7.75198 19.0251 6.88185 18.4375 6.14845 17.7C5.41181 16.9654 4.82512 16.0946 4.4211 15.1359C4.00157 14.1422 3.78829 13.0875 3.78829 11.9977C3.78829 10.9078 4.00157 9.85313 4.4211 8.85938C4.82657 7.89844 5.40782 7.03594 6.14845 6.29531C6.88907 5.55469 7.75157 4.97344 8.71016 4.56563C9.70157 4.14609 10.7586 3.93281 11.8461 3.93281C12.9359 3.93281 13.9906 4.14609 14.982 4.56563C15.9402 4.97026 16.8104 5.55778 17.5438 6.29531C17.7758 6.52734 17.9938 6.77344 18.1953 7.03125L16.7844 8.13281C16.7565 8.15441 16.7352 8.18344 16.7231 8.21658C16.7109 8.24972 16.7084 8.28562 16.7157 8.32014C16.7231 8.35466 16.74 8.38641 16.7646 8.41173C16.7892 8.43705 16.8204 8.45492 16.8547 8.46328L20.9703 9.47109C21.0875 9.49922 21.2024 9.41016 21.2024 9.29062L21.2211 5.05078C21.2188 4.89609 21.0383 4.80938 20.9164 4.90547V4.90547Z" fill="white"/>
<path d="M9.30966 8.72727V16H8.42898V9.65057H8.38636L6.6108 10.8295V9.93466L8.42898 8.72727H9.30966ZM13.7734 16.0994C13.2384 16.0994 12.7827 15.9538 12.4062 15.6626C12.0298 15.3691 11.7422 14.9441 11.5433 14.3878C11.3445 13.8291 11.245 13.1544 11.245 12.3636C11.245 11.5777 11.3445 10.9065 11.5433 10.3501C11.7446 9.79143 12.0334 9.36529 12.4098 9.07173C12.7886 8.7758 13.2431 8.62784 13.7734 8.62784C14.3037 8.62784 14.7571 8.7758 15.1335 9.07173C15.5123 9.36529 15.8011 9.79143 16 10.3501C16.2012 10.9065 16.3018 11.5777 16.3018 12.3636C16.3018 13.1544 16.2024 13.8291 16.0036 14.3878C15.8047 14.9441 15.517 15.3691 15.1406 15.6626C14.7642 15.9538 14.3085 16.0994 13.7734 16.0994ZM13.7734 15.3182C14.3037 15.3182 14.7157 15.0625 15.0092 14.5511C15.3028 14.0398 15.4496 13.3106 15.4496 12.3636C15.4496 11.7339 15.3821 11.1977 15.2472 10.755C15.1146 10.3123 14.9228 9.97491 14.6719 9.7429C14.4233 9.51089 14.1238 9.39489 13.7734 9.39489C13.2479 9.39489 12.8371 9.65412 12.5412 10.1726C12.2453 10.6887 12.0973 11.419 12.0973 12.3636C12.0973 12.9934 12.1636 13.5284 12.2962 13.9688C12.4287 14.4091 12.6193 14.7441 12.8679 14.9737C13.1188 15.2034 13.4207 15.3182 13.7734 15.3182Z" fill="white"/>
</svg>
