<?xml version="1.0" encoding="UTF-8"?>
<svg width="19px" height="17px" viewBox="0 0 19 17" version="1.1" xmlns="http://www.w3.org/2000/svg" xmlns:xlink="http://www.w3.org/1999/xlink">
    <title>icon</title>
    <g id="Page-1" stroke="none" stroke-width="1" fill="none" fill-rule="evenodd">
        <g id="Vilator-Light" transform="translate(-1036.000000, -1540.000000)" fill="#687389" fill-rule="nonzero" stroke="#687389" stroke-width="0.3">
            <g id="🌕-Section---4" transform="translate(0.000000, 935.000000)">
                <g id="Item-1" transform="translate(925.000000, 278.000000)">
                    <g id="Option" transform="translate(37.000000, 322.000000)">
                        <g id="icon" transform="translate(74.301029, 5.366462)">
                            <g transform="translate(0.009621, 0.001188)" id="Path">
                                <path d="M2.04155,12.5229 L0.52915,12.5229 C0.23655,12.5229 0,12.75945 0,13.05205 C0,13.34465 0.23655,13.5812 0.52915,13.5812 L2.04155,13.5812 C2.33415,13.5812 2.5707,13.34465 2.5707,13.05205 C2.5707,12.75945 2.33415,12.5229 2.04155,12.5229 L2.04155,12.5229 Z"></path>
                                <path d="M7.57245,12.5229 L4.807,12.5229 C4.5144,12.5229 4.27785,12.75945 4.27785,13.05205 C4.27785,13.34465 4.5144,13.5812 4.807,13.5812 L7.57245,13.5812 C7.86505,13.5812 8.1016,13.34465 8.1016,13.05205 C8.1016,12.75945 7.86505,12.5229 7.57245,12.5229 Z"></path>
                                <path d="M13.10335,12.5229 L10.33695,12.5229 C10.04435,12.5229 9.8078,12.75945 9.8078,13.05205 C9.8078,13.34465 10.04435,13.5812 10.33695,13.5812 L13.10335,13.5812 C13.39595,13.5812 13.6325,13.34465 13.6325,13.05205 C13.6325,12.75945 13.39595,12.5229 13.10335,12.5229 Z"></path>
                                <path d="M17.38025,12.5229 L15.86785,12.5229 C15.57525,12.5229 15.3387,12.75945 15.3387,13.05205 C15.3387,13.34465 15.57525,13.5812 15.86785,13.5812 L17.38025,13.5812 C17.67285,13.5812 17.9094,13.34465 17.9094,13.05205 C17.9094,12.75945 17.67285,12.5229 17.38025,12.5229 Z"></path>
                                <path d="M14.858,2.5707 C15.1506,2.5707 15.38715,2.33415 15.38715,2.04155 L15.38715,0.52915 C15.38715,0.23655 15.1506,0 14.858,0 C14.5654,0 14.32885,0.23655 14.32885,0.52915 L14.32885,2.04155 C14.32885,2.33415 14.5654,2.5707 14.858,2.5707 Z"></path>
                                <path d="M14.858,7.2979 C15.1506,7.2979 15.38715,7.06135 15.38715,6.76875 L15.38715,4.40515 C15.38715,4.11255 15.1506,3.876 14.858,3.876 C14.5654,3.876 14.32885,4.11255 14.32885,4.40515 L14.32885,6.76875 C14.32885,7.06135 14.5654,7.2979 14.858,7.29885 C14.858,7.29885 14.858,7.29885 14.858,7.29885 L14.858,7.2979 Z"></path>
                                <path d="M14.858,12.0251 C15.1506,12.0251 15.38715,11.78855 15.38715,11.49595 L15.38715,9.13235 C15.38715,8.83975 15.1506,8.6032 14.858,8.6032 C14.5654,8.6032 14.32885,8.83975 14.32885,9.13235 L14.32885,11.49595 C14.32885,11.78855 14.5654,12.02605 14.858,12.02605 C14.858,12.02605 14.858,12.02605 14.85895,12.02605 L14.858,12.0251 Z"></path>
                                <path d="M14.858,13.32945 C14.5654,13.32945 14.32885,13.566 14.32885,13.8586 L14.32885,15.371 C14.32885,15.6636 14.5654,15.90015 14.858,15.90015 C15.1506,15.90015 15.38715,15.6636 15.38715,15.371 L15.38715,13.8586 C15.38715,13.566 15.1506,13.32945 14.858,13.32945 Z"></path>
                            </g>
                            <path d="M0.788621478,4.0158875 L1.23702148,3.7755375 L1.23702148,9.9258375 C1.23702148,10.2184375 1.47357148,10.4549875 1.76617148,10.4549875 L4.68457148,10.4549875 C4.97717148,10.4549875 5.21372148,10.2184375 5.21372148,9.9258375 L5.21372148,7.3057375 L7.18687148,7.3057375 L7.18687148,9.9258375 C7.18687148,10.2184375 7.42342148,10.4549875 7.71602148,10.4549875 L10.6344215,10.4549875 C10.9270215,10.4549875 11.1635715,10.2184375 11.1635715,9.9258375 L11.1635715,3.7783875 L11.6195715,4.0206375 C11.8789215,4.1574375 12.1990715,4.0586375 12.3368215,3.8002375 C12.4745715,3.5418375 12.3748215,3.2207375 12.1164215,3.0829875 L12.1164215,3.0829875 L6.41357148,0.0619875 C6.25777148,-0.0206625 6.07157148,-0.0206625 5.91577148,0.0619875 L0.287021478,3.0829875 C0.0267214783,3.2169375 -0.0749285217,3.5361375 0.0590214783,3.7964375 C0.192971478,4.0567375 0.512171478,4.1583875 0.772471478,4.0244375 C0.777221478,4.0215875 0.782921478,4.0187375 0.787671478,4.0158875 L0.788621478,4.0168375 L0.788621478,4.0158875 Z M6.16752148,1.1297875 L10.1062215,3.2169375 L10.1062215,9.3966875 L8.24612148,9.3966875 L8.24612148,6.7765875 C8.24612148,6.4839875 8.00957148,6.2474375 7.71697148,6.2474375 L4.68457148,6.2474375 C4.39197148,6.2474375 4.15542148,6.4839875 4.15542148,6.7765875 L4.15542148,9.3966875 L2.29532148,9.3966875 L2.29532148,3.2074375 L6.16752148,1.1297875 L6.16752148,1.1297875 Z" id="Shape"></path>
                        </g>
                    </g>
                </g>
            </g>
        </g>
    </g>
</svg>