<svg width="40" height="40" viewBox="0 0 40 40" fill="none" xmlns="http://www.w3.org/2000/svg">
<rect width="40" height="40" rx="8" fill="url(#paint0_linear_569_6)"/>
<path fill-rule="evenodd" clip-rule="evenodd" d="M13.5748 4.51C15.2365 4.4335 15.7663 4.4165 19.9993 4.4165C24.2323 4.4165 24.7622 4.43492 26.4225 4.51C28.0828 4.58509 29.2162 4.85 30.2078 5.23392C31.2463 5.62634 32.1883 6.23975 32.9675 7.03309C33.7608 7.81084 34.3728 8.7515 34.7638 9.79134C35.1492 10.783 35.4127 11.9163 35.4892 13.5738C35.5657 15.2384 35.5827 15.7683 35.5827 19.9998C35.5827 24.2328 35.5643 24.7627 35.4892 26.4244C35.4141 28.0819 35.1492 29.2153 34.7638 30.2069C34.3728 31.2469 33.7598 32.1891 32.9675 32.968C32.1883 33.7613 31.2463 34.3733 30.2078 34.7643C29.2162 35.1497 28.0828 35.4132 26.4253 35.4897C24.7622 35.5662 24.2323 35.5832 19.9993 35.5832C15.7663 35.5832 15.2365 35.5648 13.5748 35.4897C11.9173 35.4146 10.7839 35.1497 9.79227 34.7643C8.75232 34.3733 7.81009 33.7603 7.03118 32.968C6.23839 32.1898 5.62488 31.248 5.23343 30.2083C4.84952 29.2167 4.58602 28.0833 4.50952 26.4258C4.43302 24.7613 4.41602 24.2314 4.41602 19.9998C4.41602 15.7668 4.43443 15.237 4.50952 13.5767C4.5846 11.9163 4.84952 10.783 5.23343 9.79134C5.62546 8.75162 6.23943 7.80986 7.0326 7.03167C7.81041 6.23905 8.75168 5.62555 9.79085 5.23392C10.7825 4.85 11.9158 4.5865 13.5733 4.51H13.5748ZM26.2964 7.315C24.6531 7.23992 24.1601 7.22434 19.9993 7.22434C15.8386 7.22434 15.3456 7.23992 13.7023 7.315C12.1822 7.38442 11.3577 7.638 10.808 7.85192C10.0813 8.13525 9.56135 8.471 9.01593 9.01642C8.49891 9.51941 8.10102 10.1317 7.85143 10.8085C7.63752 11.3582 7.38393 12.1827 7.31452 13.7028C7.23943 15.3461 7.22385 15.8391 7.22385 19.9998C7.22385 24.1606 7.23943 24.6536 7.31452 26.2969C7.38393 27.817 7.63752 28.6415 7.85143 29.1912C8.10077 29.8669 8.49885 30.4803 9.01593 30.9833C9.51885 31.5003 10.1323 31.8984 10.808 32.1478C11.3577 32.3617 12.1822 32.6153 13.7023 32.6847C15.3456 32.7598 15.8372 32.7753 19.9993 32.7753C24.1615 32.7753 24.6531 32.7598 26.2964 32.6847C27.8165 32.6153 28.641 32.3617 29.1907 32.1478C29.9174 31.8644 30.4373 31.5287 30.9828 30.9833C31.4998 30.4803 31.8979 29.8669 32.1473 29.1912C32.3612 28.6415 32.6148 27.817 32.6842 26.2969C32.7593 24.6536 32.7748 24.1606 32.7748 19.9998C32.7748 15.8391 32.7593 15.3461 32.6842 13.7028C32.6148 12.1827 32.3612 11.3582 32.1473 10.8085C31.8639 10.0818 31.5282 9.56184 30.9828 9.01642C30.4797 8.49944 29.8674 8.10155 29.1907 7.85192C28.641 7.638 27.8165 7.38442 26.2964 7.315V7.315ZM18.0089 24.8038C19.1205 25.2665 20.3583 25.3289 21.5108 24.9804C22.6634 24.632 23.6592 23.8941 24.3281 22.893C24.9971 21.8919 25.2978 20.6896 25.1787 19.4914C25.0597 18.2932 24.5284 17.1735 23.6756 16.3236C23.1319 15.7803 22.4746 15.3642 21.7508 15.1055C21.0271 14.8467 20.255 14.7516 19.4901 14.827C18.7251 14.9025 17.9865 15.1466 17.3272 15.5418C16.668 15.937 16.1046 16.4734 15.6775 17.1125C15.2505 17.7515 14.9704 18.4773 14.8576 19.2376C14.7447 19.9979 14.8018 20.7738 15.0248 21.5093C15.2477 22.2449 15.631 22.9219 16.147 23.4915C16.663 24.0612 17.2989 24.5093 18.0089 24.8038ZM14.3355 14.336C15.0793 13.5922 15.9623 13.0022 16.9341 12.5997C17.9059 12.1971 18.9475 11.99 19.9993 11.99C21.0512 11.99 22.0928 12.1971 23.0646 12.5997C24.0364 13.0022 24.9194 13.5922 25.6632 14.336C26.407 15.0798 26.997 15.9628 27.3995 16.9346C27.802 17.9064 28.0092 18.948 28.0092 19.9998C28.0092 21.0517 27.802 22.0933 27.3995 23.0651C26.997 24.0369 26.407 24.9199 25.6632 25.6637C24.161 27.1658 22.1237 28.0097 19.9993 28.0097C17.875 28.0097 15.8377 27.1658 14.3355 25.6637C12.8334 24.1615 11.9895 22.1242 11.9895 19.9998C11.9895 17.8755 12.8334 15.8381 14.3355 14.336V14.336ZM29.7857 13.1828C29.97 13.009 30.1176 12.7999 30.2196 12.568C30.3217 12.336 30.3762 12.086 30.3799 11.8327C30.3835 11.5793 30.3364 11.3278 30.2411 11.093C30.1459 10.8582 30.0045 10.6449 29.8253 10.4657C29.6461 10.2866 29.4328 10.1452 29.198 10.0499C28.9632 9.95465 28.7117 9.90747 28.4584 9.91116C28.205 9.91486 27.955 9.96935 27.7231 10.0714C27.4911 10.1735 27.2821 10.321 27.1082 10.5053C26.77 10.8638 26.5849 11.3399 26.5921 11.8327C26.5993 12.3254 26.7982 12.7959 27.1467 13.1444C27.4951 13.4928 27.9656 13.6917 28.4584 13.6989C28.9511 13.7061 29.4272 13.521 29.7857 13.1828V13.1828Z" fill="white"/>
<defs>
<linearGradient id="paint0_linear_569_6" x1="40" y1="-1.19209e-06" x2="-3.57628e-06" y2="40" gradientUnits="userSpaceOnUse">
<stop stop-color="#D856B0"/>
<stop offset="0.473919" stop-color="#FE6951"/>
<stop offset="0.697796" stop-color="#FFA159"/>
<stop offset="1" stop-color="#FFD364"/>
</linearGradient>
</defs>
</svg>
