<?xml version="1.0" encoding="UTF-8"?>
<svg width="18px" height="18px" viewBox="0 0 18 18" version="1.1" xmlns="http://www.w3.org/2000/svg" xmlns:xlink="http://www.w3.org/1999/xlink">
    <title>Balcone</title>
    <g id="Page-1" stroke="none" stroke-width="1" fill="none" fill-rule="evenodd">
        <g id="Single-1" transform="translate(-972.000000, -1529.000000)" fill-rule="nonzero">
            <g id="Group-74" transform="translate(416.000000, 1440.000000)">
                <g id="Group-26" transform="translate(484.000000, 72.000000)">
                    <g id="Balcone" transform="translate(72.000000, 17.000000)">
                        <rect id="Rectangle" fill="#FFFFFF" x="1.63636364" y="8.99999991" width="14.7272727" height="5.72727273"></rect>
                        <path d="M4.09090909,8.99999991 L4.09090909,5.72727264 C4.09090909,3.0160566 6.28878396,0.818181733 9,0.818181733 C11.711216,0.818181733 13.9090909,3.0160566 13.9090909,5.72727264 L13.9090909,8.99999991 L4.09090909,8.99999991 Z" id="Path" fill="#FFFFFF"></path>
                        <path d="M8.18181818,0.891818096 L8.18181818,2.35636355 C8.18131392,4.47374253 6.88199444,6.37399728 4.90909091,7.14272719 L4.90909091,8.1818181 L4.09090909,8.1818181 L4.09090909,5.72727264 C4.09333474,3.33366479 5.82168759,1.29075172 8.18181818,0.891818096 Z" id="Path" fill="#40AAC8"></path>
                        <path d="M9.81818182,0.891818096 L9.81818182,2.35636355 C9.81868608,4.47374253 11.1180056,6.37399728 13.0909091,7.14272719 L13.0909091,8.1818181 L13.9090909,8.1818181 L13.9090909,5.72727264 C13.9066653,3.33366479 12.1783124,1.29075172 9.81818182,0.891818096 Z" id="Path" fill="#40AAC8"></path>
                        <path d="M0,14.7272726 L18,14.7272726 L18,16.3636363 C18,17.267375 17.267375,17.9999999 16.3636364,17.9999999 L1.63636364,17.9999999 C0.732624955,17.9999999 0,17.267375 0,16.3636363 L0,14.7272726 Z" id="Path" fill="#40AAC8" opacity="0.514852834"></path>
                        <path d="M15.5454545,7.36363628 L15.5454545,8.1818181 L14.7272727,8.1818181 L14.7272727,5.72727264 C14.7272727,2.56418729 12.1630854,0 9,0 C5.83691465,0 3.27272732,2.56418729 3.27272727,5.72727264 L3.27272727,8.1818181 L2.45454545,8.1818181 L2.45454545,7.36363628 L0.818181818,7.36363628 L0.818181818,14.7272726 L2.45454545,14.7272726 L2.45454545,9.81818173 L4.09090909,9.81818173 L4.09090909,14.7272726 L5.72727273,14.7272726 L5.72727273,9.81818173 L8.18181818,9.81818173 L8.18181818,14.7272726 L9.81818182,14.7272726 L9.81818182,9.81818173 L12.2727273,9.81818173 L12.2727273,14.7272726 L13.9090909,14.7272726 L13.9090909,9.81818173 L15.5454545,9.81818173 L15.5454545,14.7272726 L17.1818182,14.7272726 L17.1818182,7.36363628 L15.5454545,7.36363628 Z M13.0909091,8.1818181 L4.90909091,8.1818181 L4.90909091,5.72727264 C4.90909091,3.46792594 6.7406533,1.63636355 9,1.63636355 C11.2593467,1.63636355 13.0909091,3.46792594 13.0909091,5.72727264 L13.0909091,8.1818181 Z" id="Shape" fill="#292932"></path>
                    </g>
                </g>
            </g>
        </g>
    </g>
</svg>