<svg width="30" height="30" viewBox="0 0 30 30" fill="none" xmlns="http://www.w3.org/2000/svg">
<path d="M14.9937 23.3418L11.1484 14.4917C10.6846 13.4256 10.3224 12.7502 10.062 12.4653C9.87484 12.2537 9.59814 12.1113 9.23193 12.0381V11.5864H15.2988V12.0381C14.9163 12.0381 14.6559 12.1073 14.5176 12.2456C14.3223 12.4246 14.2246 12.6362 14.2246 12.8804C14.2246 13.1815 14.4036 13.7471 14.7617 14.5771L16.6416 18.8618L18.1431 15.1631C18.5744 14.1051 18.79 13.3564 18.79 12.917C18.79 12.6647 18.6965 12.4613 18.5093 12.3066C18.3302 12.1439 18.0088 12.0544 17.5449 12.0381V11.5864H21.2803V12.0381C20.9222 12.0869 20.6292 12.2212 20.4014 12.4409C20.1735 12.6606 19.8317 13.3076 19.376 14.3818L15.5674 23.3418H14.9937Z" fill="white"/>
<path fill-rule="evenodd" clip-rule="evenodd" d="M15 1L13.5788 2.31694L24.3221 12.273C25.2371 13.1214 25.9276 14.6977 25.9276 15.9393V15.9393V27H28V14.4546C28 13.7185 27.5059 12.5904 26.9629 12.087V12.087L15 1ZM3.03664 12.0773C2.49429 12.5802 2 13.7078 2 14.4428V14.4428V26.9773H4.07247V15.9262C4.07247 14.6857 4.76251 13.1108 5.67802 12.2631V12.2631L13.6855 4.84851L12.2647 3.53277L3.03664 12.0773ZM4.08075 27H25.9186V25.1647H4.08075V27Z" fill="#D8D8D8"/>
<mask id="mask0_0_1008" style="mask-type:alpha" maskUnits="userSpaceOnUse" x="1" y="0" width="28" height="28">
<path fill-rule="evenodd" clip-rule="evenodd" d="M15 1L13.5788 2.31694L24.3221 12.273C25.2371 13.1214 25.9276 14.6977 25.9276 15.9393V15.9393V27H28V14.4546C28 13.7185 27.5059 12.5904 26.9629 12.087V12.087L15 1ZM3.03664 12.0773C2.49429 12.5802 2 13.7078 2 14.4428V14.4428V26.9773H4.07247V15.9262C4.07247 14.6857 4.76251 13.1108 5.67802 12.2631V12.2631L13.6855 4.84851L12.2647 3.53277L3.03664 12.0773ZM4.08075 27H25.9186V25.1647H4.08075V27Z" fill="white"/>
<path d="M15 1L15.4078 0.559933L15 0.181969L14.5922 0.559905L15 1ZM13.5788 2.31694L13.171 1.87684L12.6961 2.31692L13.171 2.75702L13.5788 2.31694ZM24.3221 12.273L24.73 11.833L24.7299 11.8329L24.3221 12.273ZM25.9276 27H25.3276V27.6H25.9276V27ZM28 27V27.6H28.6V27H28ZM3.03664 12.0773L2.629 11.6371L2.62867 11.6374L3.03664 12.0773ZM2 26.9773H1.4V27.5773H2V26.9773ZM4.07247 26.9773V27.5773H4.67247V26.9773H4.07247ZM13.6855 4.84851L14.0932 5.28876L14.5686 4.84852L14.0932 4.40827L13.6855 4.84851ZM12.2647 3.53277L12.6724 3.09254L12.2647 2.71505L11.857 3.09252L12.2647 3.53277ZM4.08075 27H3.48075V27.6H4.08075V27ZM25.9186 27V27.6H26.5186V27H25.9186ZM25.9186 25.1647H26.5186V24.5647H25.9186V25.1647ZM4.08075 25.1647V24.5647H3.48075V25.1647H4.08075ZM14.5922 0.559905L13.171 1.87684L13.9867 2.75703L15.4078 1.44009L14.5922 0.559905ZM13.171 2.75702L23.9142 12.7131L24.7299 11.8329L13.9867 1.87686L13.171 2.75702ZM23.9141 12.713C24.2976 13.0686 24.656 13.6004 24.9184 14.1994C25.1808 14.7986 25.3276 15.4205 25.3276 15.9393H26.5276C26.5276 15.2165 26.3292 14.4295 26.0176 13.718C25.7059 13.0063 25.2615 12.3259 24.73 11.833L23.9141 12.713ZM25.3276 15.9393V27H26.5276V15.9393H25.3276ZM25.9276 27.6H28V26.4H25.9276V27.6ZM28.6 27V14.4546H27.4V27H28.6ZM28.6 14.4546C28.6 13.9736 28.4446 13.4221 28.2346 12.9428C28.0246 12.4632 27.7243 11.9748 27.3708 11.647L26.555 12.527C26.7444 12.7027 26.9628 13.03 27.1355 13.4243C27.3083 13.8189 27.4 14.1995 27.4 14.4546H28.6ZM27.3707 11.647L15.4078 0.559933L14.5922 1.44007L26.555 12.5271L27.3707 11.647ZM2.62867 11.6374C2.27551 11.9648 1.97544 12.4529 1.7654 12.9322C1.55551 13.411 1.4 13.9621 1.4 14.4428H2.6C2.6 14.1884 2.69164 13.8082 2.86447 13.4139C3.03717 13.0198 3.25542 12.6927 3.44461 12.5173L2.62867 11.6374ZM1.4 14.4428V26.9773H2.6V14.4428H1.4ZM2 27.5773H4.07247V26.3773H2V27.5773ZM4.67247 26.9773V15.9262H3.47247V26.9773H4.67247ZM4.67247 15.9262C4.67247 15.408 4.81917 14.7867 5.08147 14.1882C5.34371 13.5898 5.70205 13.0586 6.08566 12.7034L5.27037 11.8229C4.73848 12.3154 4.29405 12.9954 3.98239 13.7065C3.67079 14.4175 3.47247 15.204 3.47247 15.9262H4.67247ZM6.08567 12.7034L14.0932 5.28876L13.2779 4.40826L5.27036 11.8229L6.08567 12.7034ZM14.0932 4.40827L12.6724 3.09254L11.857 3.97301L13.2779 5.28874L14.0932 4.40827ZM11.857 3.09252L2.629 11.6371L3.44429 12.5176L12.6723 3.97303L11.857 3.09252ZM4.08075 27.6H25.9186V26.4H4.08075V27.6ZM26.5186 27V25.1647H25.3186V27H26.5186ZM25.9186 24.5647H4.08075V25.7647H25.9186V24.5647ZM3.48075 25.1647V27H4.68075V25.1647H3.48075Z" fill="white"/>
</mask>
<g mask="url(#mask0_0_1008)">
<path d="M15 1L17.0392 -1.20034L15.0001 -3.09016L12.9609 -1.20047L15 1ZM13.5788 2.31694L11.5397 0.116463L9.16521 2.31686L11.5397 4.51734L13.5788 2.31694ZM24.3221 12.273L26.3618 10.0731L26.3612 10.0726L24.3221 12.273ZM25.9276 27H22.9276V30H25.9276V27ZM28 27V30H31V27H28ZM3.03664 12.0773L0.99841 9.87604L0.996795 9.87754L3.03664 12.0773ZM2 26.9773H-1V29.9773H2V26.9773ZM4.07247 26.9773V29.9773H7.07247V26.9773H4.07247ZM13.6855 4.84851L15.7238 7.04975L18.101 4.84859L15.7239 2.64733L13.6855 4.84851ZM12.2647 3.53277L14.303 1.3316L12.2648 -0.55586L10.2265 1.3315L12.2647 3.53277ZM4.08075 27H1.08075V30H4.08075V27ZM25.9186 27V30H28.9186V27H25.9186ZM25.9186 25.1647H28.9186V22.1647H25.9186V25.1647ZM4.08075 25.1647V22.1647H1.08075V25.1647H4.08075ZM12.9609 -1.20047L11.5397 0.116463L15.6179 4.51741L17.0391 3.20047L12.9609 -1.20047ZM11.5397 4.51734L22.2829 14.4734L26.3612 10.0726L15.618 0.116537L11.5397 4.51734ZM22.2823 14.4729C22.3697 14.5539 22.5563 14.7885 22.72 15.1622C22.884 15.5367 22.9276 15.8283 22.9276 15.9393H28.9276C28.9276 14.8087 28.626 13.6914 28.216 12.7552C27.8056 11.8182 27.1894 10.8405 26.3618 10.0731L22.2823 14.4729ZM22.9276 15.9393V27H28.9276V15.9393H22.9276ZM25.9276 30H28V24H25.9276V30ZM31 27V14.4546H25V27H31ZM31 14.4546C31 13.5217 30.7172 12.6287 30.433 11.9798C30.1482 11.3297 29.6842 10.5191 29.0025 9.88702L24.9233 14.2871C24.872 14.2395 24.8441 14.2061 24.8365 14.1967C24.8279 14.1862 24.8304 14.1881 24.8414 14.205C24.8653 14.2416 24.9012 14.3052 24.9371 14.3873C24.9731 14.4694 24.9952 14.5382 25.0055 14.5792C25.0103 14.598 25.0098 14.6001 25.0077 14.5853C25.0058 14.572 25 14.527 25 14.4546H31ZM29.0021 9.8867L17.0392 -1.20034L12.9608 3.20034L24.9236 14.2874L29.0021 9.8867ZM0.996795 9.87754C0.315685 10.5091 -0.148042 11.3192 -0.432737 11.9687C-0.716749 12.6167 -1 13.5097 -1 14.4428H5C5 14.5156 4.99416 14.5609 4.99222 14.5745C4.99009 14.5894 4.98955 14.5875 4.99429 14.5688C5.00457 14.5281 5.02664 14.4594 5.06261 14.3773C5.09856 14.2953 5.13447 14.2316 5.15835 14.1951C5.16939 14.1781 5.17188 14.1762 5.16334 14.1867C5.15567 14.1961 5.12784 14.2295 5.07649 14.2771L0.996795 9.87754ZM-1 14.4428V26.9773H5V14.4428H-1ZM2 29.9773H4.07247V23.9773H2V29.9773ZM7.07247 26.9773V15.9262H1.07247V26.9773H7.07247ZM7.07247 15.9262C7.07247 15.8159 7.11594 15.5251 7.27964 15.1516C7.44302 14.7788 7.62919 14.545 7.71624 14.4644L3.6398 10.0618C2.81134 10.8289 2.19474 11.8065 1.78422 12.7432C1.37403 13.6791 1.07247 14.796 1.07247 15.9262H7.07247ZM7.71628 14.4644L15.7238 7.04975L11.6473 2.64726L3.63976 10.0619L7.71628 14.4644ZM15.7239 2.64733L14.303 1.3316L10.2263 5.73395L11.6472 7.04968L15.7239 2.64733ZM10.2265 1.3315L0.998411 9.87604L5.07487 14.2786L14.3029 5.73405L10.2265 1.3315ZM4.08075 30H25.9186V24H4.08075V30ZM28.9186 27V25.1647H22.9186V27H28.9186ZM25.9186 22.1647H4.08075V28.1647H25.9186V22.1647ZM1.08075 25.1647V27H7.08075V25.1647H1.08075Z" fill="white"/>
</g>
<rect width="30" height="30" stroke="#21325B" stroke-opacity="0.130735"/>
</svg>
