<?xml version="1.0" encoding="UTF-8"?>
<svg width="20px" height="16px" viewBox="0 0 20 16" version="1.1" xmlns="http://www.w3.org/2000/svg" xmlns:xlink="http://www.w3.org/1999/xlink">
    <title>Sofa</title>
    <g id="Page-1" stroke="none" stroke-width="1" fill="none" fill-rule="evenodd">
        <g id="Single-1" transform="translate(-518.000000, -1530.000000)" fill-rule="nonzero">
            <g id="Group-74" transform="translate(416.000000, 1440.000000)">
                <g id="Group-26" transform="translate(37.000000, 72.000000)">
                    <g id="Sofa" transform="translate(65.000000, 18.802937)">
                        <path d="M4.54545455,9.10784806 L8.18181818,9.10784806 C9.18597227,9.10784806 10,9.92187579 10,10.9260299 L10,12.7442117 L4.54545455,12.7442117 L4.54545455,9.10784806 Z" id="Path" fill="#9DD4E3"></path>
                        <path d="M11.8181818,9.10784806 L15.4545455,9.10784806 L15.4545455,12.7442117 L10,12.7442117 L10,10.9260299 C10,9.92187579 10.8140277,9.10784806 11.8181818,9.10784806 Z" id="Path" fill="#9DD4E3"></path>
                        <path d="M18.1818182,6.5442117 L18.1818182,2.7442117 C18.1818182,1.23798056 16.9607766,0.0169389687 15.4545455,0.0169389687 C11.6727273,0.0169389687 11,-0.173970122 10,0.726029878 C9.00909091,-0.164879213 8.42727273,0.0169389687 4.54545455,0.0169389687 C3.03922341,0.0169389687 1.81818182,1.23798056 1.81818182,2.7442117 L1.81818182,6.5442117 C0.73115573,6.92852833 0.00324033247,7.95488904 0,9.10784806 L0,14.5623935 L5.45454545,14.5623935 L5.45454545,13.6533026 L14.5454545,13.6533026 L14.5454545,14.5623935 L20,14.5623935 L20,9.10784806 C19.9967597,7.95488904 19.2688443,6.92852833 18.1818182,6.5442117 Z M3.63636364,12.7442117 L1.81818182,12.7442117 L1.81818182,9.10784806 C1.81818182,8.60577101 2.22519568,8.19875715 2.72727273,8.19875715 C3.22934977,8.19875715 3.63636364,8.60577101 3.63636364,9.10784806 L3.63636364,12.7442117 Z M5.45454545,11.8351208 L5.45454545,9.10784806 C5.45130512,7.95488904 4.72338972,6.92852833 3.63636364,6.5442117 L3.63636364,2.7442117 C3.63636364,2.24213465 4.0433775,1.83512079 4.54545455,1.83512079 L8.18181818,1.83512079 C8.68389523,1.83512079 9.09090909,2.24213465 9.09090909,2.7442117 L10.9090909,2.7442117 C10.9090909,2.24213465 11.3161048,1.83512079 11.8181818,1.83512079 L15.4545455,1.83512079 C15.9566225,1.83512079 16.3636364,2.24213465 16.3636364,2.7442117 L16.3636364,6.5442117 C15.2766103,6.92852833 14.5486949,7.95488904 14.5454545,9.10784806 L14.5454545,11.8351208 L5.45454545,11.8351208 Z M18.1818182,12.7442117 L16.3636364,12.7442117 L16.3636364,9.10784806 C16.3636364,8.60577101 16.7706502,8.19875715 17.2727273,8.19875715 C17.7748043,8.19875715 18.1818182,8.60577101 18.1818182,9.10784806 L18.1818182,12.7442117 Z" id="Shape" fill="#292932"></path>
                        <rect id="Rectangle" fill="#40AAC8" x="5.45454545" y="3.65330261" width="1.81818182" height="1.81818182"></rect>
                        <rect id="Rectangle" fill="#40AAC8" x="12.7272727" y="3.65330261" width="1.81818182" height="1.81818182"></rect>
                    </g>
                </g>
            </g>
        </g>
    </g>
</svg>