<?xml version="1.0" encoding="UTF-8"?>
<svg width="20px" height="19px" viewBox="0 0 20 19" version="1.1" xmlns="http://www.w3.org/2000/svg" xmlns:xlink="http://www.w3.org/1999/xlink">
    <title>Pool</title>
    <g id="Page-1" stroke="none" stroke-width="1" fill="none" fill-rule="evenodd">
        <g id="Single-1" transform="translate(-1109.000000, -1530.000000)" fill-rule="nonzero">
            <g id="Group-74" transform="translate(416.000000, 1440.000000)">
                <g id="Group-26" transform="translate(630.000000, 76.000000)">
                    <g id="Pool" transform="translate(63.000000, 14.000000)">
                        <rect id="Rectangle" fill="#292932" x="7.27272727" y="4.54545455" width="9.09090909" height="1.81818182"></rect>
                        <rect id="Rectangle" fill="#292932" x="7.27272727" y="8.18181818" width="9.09090909" height="1.81818182"></rect>
                        <path d="M8.18181818,12.7272727 L6.36363636,12.7272727 L6.36363636,2.72727273 C6.36363636,2.22519568 5.9566225,1.81818182 5.45454545,1.81818182 C4.95246841,1.81818182 4.54545455,2.22519568 4.54545455,2.72727273 L2.72727273,2.72727273 C2.72727273,1.22104161 3.94831433,4.06398613e-08 5.45454545,4.06398613e-08 C6.96077657,4.06398613e-08 8.18181818,1.22104161 8.18181818,2.72727273 L8.18181818,12.7272727 Z" id="Path" fill="#292932"></path>
                        <path d="M17.2727273,12.7272727 L15.4545455,12.7272727 L15.4545455,2.72727273 C15.4545455,2.22519568 15.0475316,1.81818182 14.5454545,1.81818182 C14.0433775,1.81818182 13.6363636,2.22519568 13.6363636,2.72727273 L11.8181818,2.72727273 C11.8181818,1.22104159 13.0392234,0 14.5454545,0 C16.0516857,0 17.2727273,1.22104159 17.2727273,2.72727273 L17.2727273,12.7272727 Z" id="Path" fill="#292932"></path>
                        <path d="M20,14.5454545 C17.8545455,14.5454545 17.6363636,13.6363636 16,13.6363636 C14.3636364,13.6363636 14.1181818,14.5454545 11.9909091,14.5454545 C9.86363636,14.5454545 9.63636364,13.6363636 7.99090909,13.6363636 C6.34545455,13.6363636 6.09090909,14.5454545 4,14.5454545 C1.90909091,14.5454545 1.59090909,13.6363636 0,13.6363636 L0,11.8181818 C2.06363636,11.8181818 2.4,12.7272727 4,12.7272727 C4.56250831,12.7446266 5.11994597,12.6162281 5.61818182,12.3545455 C7.11964128,11.6274719 8.87126782,11.6274719 10.3727273,12.3545455 C10.8709631,12.6162281 11.4284008,12.7446266 11.9909091,12.7272727 C12.5625033,12.7485469 13.1297323,12.6200585 13.6363636,12.3545455 C15.1378231,11.6274719 16.8894496,11.6274719 18.3909091,12.3545455 C18.8874194,12.6120576 19.440834,12.7402497 20,12.7272727 L20,14.5454545 Z" id="Path" fill="#40AAC8" opacity="0.514852834"></path>
                        <path d="M20,18.1818182 C17.8545455,18.1818182 17.6363636,17.2727273 16,17.2727273 C14.3636364,17.2727273 14.1181818,18.1818182 11.9909091,18.1818182 C9.86363636,18.1818182 9.63636364,17.2727273 7.99090909,17.2727273 C6.34545455,17.2727273 6.09090909,18.1818182 4,18.1818182 C1.90909091,18.1818182 1.59090909,17.2727273 0,17.2727273 L0,15.4545455 C2.06363636,15.4545455 2.4,16.3636364 4,16.3636364 C4.56250831,16.3809903 5.11994597,16.2525917 5.61818182,15.9909091 C7.11964128,15.2638356 8.87126782,15.2638356 10.3727273,15.9909091 C10.8709631,16.2525917 11.4284008,16.3809903 11.9909091,16.3636364 C12.5625033,16.3849105 13.1297323,16.2564222 13.6363636,15.9909091 C15.1378231,15.2638356 16.8894496,15.2638356 18.3909091,15.9909091 C18.8874194,16.2484212 19.440834,16.3766133 20,16.3636364 L20,18.1818182 Z" id="Path" fill="#40AAC8"></path>
                    </g>
                </g>
            </g>
        </g>
    </g>
</svg>