<?xml version="1.0" encoding="UTF-8"?>
<svg width="21px" height="19px" viewBox="0 0 21 19" version="1.1" xmlns="http://www.w3.org/2000/svg" xmlns:xlink="http://www.w3.org/1999/xlink">
    <title>Group</title>
    <g id="Page-1" stroke="none" stroke-width="1" fill="none" fill-rule="evenodd">
        <g id="Single-1" transform="translate(-826.000000, -1529.000000)" fill-rule="nonzero">
            <g id="Group-74" transform="translate(416.000000, 1440.000000)">
                <g id="Group-26" transform="translate(336.000000, 72.000000)">
                    <g id="Blue_Print" transform="translate(74.791667, 17.583333)">
                        <rect id="Rectangle" fill="#9DD4E3" x="0" y="0" width="1.76515155" height="14.1212124"></rect>
                        <rect id="Rectangle" fill="#9DD4E3" x="3.53030309" y="15.8863639" width="15.8863639" height="1.76515155"></rect>
                        <path d="M5.29545464,10.5909093 C6.27032092,10.5909093 7.06060618,11.3811945 7.06060618,12.3560608 L5.29545464,12.3560608 L5.29545464,10.5909093 Z" id="Path" fill="#40AAC8"></path>
                        <path d="M15.8863639,12.3560608 C15.8863639,11.3811945 16.6766492,10.5909093 17.6515155,10.5909093 L17.6515155,12.3560608 L15.8863639,12.3560608 Z" id="Path" fill="#40AAC8"></path>
                        <path d="M7.94318195,0 L7.94318195,3.53030309 L3.53030309,3.53030309 L3.53030309,14.1212124 L19.416667,14.1212124 L19.416667,0 L7.94318195,0 Z M11.473485,12.3560608 L11.473485,8.82575773 L15.8863639,8.82575773 L15.8863639,7.06060618 L9.7083335,7.06060618 L9.7083335,12.3560608 L5.29545464,12.3560608 L5.29545464,8.82575773 L7.94318195,8.82575773 L7.94318195,7.06060618 L5.29545464,7.06060618 L5.29545464,5.29545464 L9.7083335,5.29545464 L9.7083335,1.76515155 L12.3560608,1.76515155 L12.3560608,5.29545464 L14.1212124,5.29545464 L14.1212124,1.76515155 L17.6515155,1.76515155 L17.6515155,3.53030309 L15.8863639,3.53030309 L15.8863639,5.29545464 L17.6515155,5.29545464 L17.6515155,12.3560608 L11.473485,12.3560608 Z" id="Shape" fill="#292932"></path>
                    </g>
                </g>
            </g>
        </g>
    </g>
</svg>