<svg width="40" height="40" viewBox="0 0 40 40" fill="none" xmlns="http://www.w3.org/2000/svg">
<rect width="40" height="40" rx="8" fill="#00B8F6"/>
<path d="M33 11.6096C32.0071 12.0506 30.9405 12.3486 29.8191 12.4832C30.9761 11.7893 31.8417 10.6972 32.2544 9.41062C31.1674 10.0578 29.9777 10.5133 28.737 10.7574C27.9027 9.86456 26.7977 9.27275 25.5934 9.07389C24.3891 8.87502 23.1531 9.08022 22.0771 9.65763C21.0011 10.235 20.1454 11.1524 19.6429 12.2672C19.1403 13.382 19.019 14.6319 19.2979 15.8228C17.0952 15.712 14.9405 15.1382 12.9735 14.1386C11.0064 13.1391 9.27106 11.7361 7.87999 10.0209C7.40434 10.8432 7.13085 11.7967 7.13085 12.8122C7.13032 13.7263 7.35491 14.6265 7.78471 15.4328C8.21451 16.2391 8.83623 16.9265 9.59469 17.4342C8.71507 17.4062 7.85487 17.1679 7.08566 16.7394V16.8109C7.08557 18.093 7.52805 19.3357 8.33801 20.3281C9.14798 21.3204 10.2755 22.0014 11.5294 22.2553C10.7134 22.4767 9.85788 22.5093 9.02748 22.3507C9.38124 23.4539 10.0703 24.4186 10.9983 25.1097C11.9262 25.8009 13.0466 26.1839 14.2025 26.2051C12.2403 27.7491 9.81692 28.5866 7.32229 28.5829C6.8804 28.583 6.43887 28.5571 6 28.5054C8.53219 30.1373 11.4798 31.0034 14.4903 31C24.681 31 30.252 22.5402 30.252 15.2031C30.252 14.9647 30.246 14.7239 30.2353 14.4856C31.3189 13.7001 32.2543 12.7274 32.9976 11.6132L33 11.6096V11.6096Z" fill="white"/>
</svg>
