<?xml version="1.0" encoding="UTF-8"?>
<svg width="22px" height="20px" viewBox="0 0 22 20" version="1.1" xmlns="http://www.w3.org/2000/svg" xmlns:xlink="http://www.w3.org/1999/xlink">
    <title>icon</title>
    <g id="Page-1" stroke="none" stroke-width="1" fill="none" fill-rule="evenodd">
        <g id="vilator" transform="translate(-495.000000, -254.000000)">
            <g id="🌕box-search-arizz" transform="translate(262.000000, 251.000000)">
                <g id="Remember-Search" transform="translate(25.000000, 0.000000)">
                    <g id="icon" transform="translate(209.333333, 4.000000)">
                        <g id="Group" transform="translate(4.481481, 3.024691)" fill="#F68632" fill-rule="nonzero">
                            <circle id="Oval" cx="5.31813865" cy="2.65906933" r="2.65906933"></circle>
                            <path d="M5.55080722,6.65432099 C3.7359924,6.58784425 0,7.49192783 0,9.30674264 L0,9.97150997 C0,10.337132 0.299145299,10.6362773 0.664767331,10.6362773 L6.34188034,10.6362773 C4.69990503,8.80151947 5.52421652,6.72079772 5.55080722,6.65432099 Z" id="Path"></path>
                            <path d="M11.5868946,9.32003799 C11.8993352,8.78822412 12.0522317,8.14339981 11.9059829,7.44539411 C11.679962,6.35517569 10.7625831,5.48433048 9.65906933,5.34472934 C7.91073124,5.11870845 6.43494777,6.58784425 6.66761633,8.33618234 C6.81386515,9.43969611 7.67806268,10.357075 8.7682811,10.5830959 C9.4662868,10.7293447 10.1111111,10.5764482 10.642925,10.2640076 L11.8793922,11.5004748 C12.1386515,11.7597341 12.5574549,11.7597341 12.8167142,11.5004748 L12.8167142,11.5004748 C13.0759734,11.2412156 13.0759734,10.8224122 12.8167142,10.5631529 L11.5868946,9.32003799 Z M9.30674264,9.30674264 C8.57549858,9.30674264 7.97720798,8.70845204 7.97720798,7.97720798 C7.97720798,7.24596391 8.57549858,6.64767331 9.30674264,6.64767331 C10.0379867,6.64767331 10.6362773,7.24596391 10.6362773,7.97720798 C10.6362773,8.70845204 10.0379867,9.30674264 9.30674264,9.30674264 Z" id="Shape"></path>
                        </g>
                        <rect id="Rectangle" stroke="#F68632" x="0" y="0" width="20" height="18.1818182" rx="6"></rect>
                    </g>
                </g>
            </g>
        </g>
    </g>
</svg>