<svg width="40" height="40" viewBox="0 0 40 40" fill="none" xmlns="http://www.w3.org/2000/svg">
<rect width="40" height="40" rx="8" fill="#2DB221"/>
<g clip-path="url(#clip0_569_5)">
<path fill-rule="evenodd" clip-rule="evenodd" d="M26.3175 22.779C25.9698 22.6052 24.2653 21.7675 23.948 21.6509C23.6307 21.5354 23.3997 21.4782 23.1675 21.8259C22.9365 22.1712 22.2727 22.9529 22.0708 23.1839C21.8678 23.416 21.666 23.444 21.3195 23.2714C20.973 23.0964 19.8553 22.7312 18.5312 21.5505C17.501 20.6312 16.8045 19.496 16.6027 19.1484C16.4008 18.8019 16.5805 18.614 16.7543 18.4414C16.9107 18.2862 17.1008 18.0365 17.2747 17.8347C17.4485 17.6317 17.5057 17.487 17.6212 17.2549C17.7378 17.0239 17.6795 16.822 17.592 16.6482C17.5057 16.4744 16.8127 14.7675 16.5233 14.0734C16.2422 13.3979 15.9563 13.49 15.744 13.4784C15.541 13.469 15.31 13.4667 15.079 13.4667C14.848 13.4667 14.4723 13.553 14.155 13.9007C13.8365 14.2472 12.9417 15.086 12.9417 16.7929C12.9417 18.4985 14.183 20.147 14.3568 20.3792C14.5307 20.6102 16.801 24.1125 20.2788 25.614C21.1072 25.971 21.7523 26.1845 22.2552 26.3432C23.0858 26.608 23.8418 26.5707 24.4392 26.4809C25.1042 26.3817 26.4902 25.642 26.7795 24.8324C27.0677 24.0227 27.0677 23.3285 26.9813 23.1839C26.895 23.0392 26.664 22.9529 26.3163 22.779H26.3175ZM19.9918 31.4159H19.9872C17.9215 31.4163 15.8938 30.861 14.1165 29.8082L13.6965 29.5585L9.33083 30.7042L10.4963 26.4482L10.2222 26.0119C9.06733 24.1736 8.45618 22.0461 8.45933 19.8752C8.46167 13.5169 13.6347 8.34388 19.9965 8.34388C23.0765 8.34388 25.9722 9.54555 28.1492 11.7249C29.2229 12.7942 30.074 14.0659 30.6532 15.4663C31.2323 16.8666 31.528 18.368 31.5232 19.8834C31.5208 26.2417 26.3478 31.4159 19.9918 31.4159V31.4159ZM29.8058 10.0694C28.5204 8.77546 26.9909 7.74951 25.3061 7.05098C23.6213 6.35246 21.8146 5.99524 19.9907 6.00005C12.3443 6.00005 6.119 12.2242 6.11667 19.874C6.11312 22.3086 6.75177 24.701 7.96817 26.8099L6 34L13.3547 32.0704C15.3892 33.1789 17.6691 33.7597 19.986 33.7597H19.9918C27.6382 33.7597 33.8635 27.5355 33.8658 19.8845C33.8715 18.0614 33.5156 16.2552 32.8187 14.5704C32.1218 12.8857 31.0978 11.3558 29.8058 10.0694" fill="white"/>
</g>
<defs>
<clipPath id="clip0_569_5">
<rect width="28" height="28" fill="white" transform="translate(6 6)"/>
</clipPath>
</defs>
</svg>
